Coordinates
version=1
nRows=26
nColumns=24
inDegrees=yes

Units are S.I. units (second, meters, Newtons, ...)
Angles are in degrees.

endheader
time	pelvis_tilt	pelvis_list	pelvis_rotation	pelvis_tx	pelvis_ty	pelvis_tz	hip_flexion_r	hip_adduction_r	hip_rotation_r	knee_angle_r	ankle_angle_r	subtalar_angle_r	mtp_angle_r	hip_flexion_l	hip_adduction_l	hip_rotation_l	knee_angle_l	ankle_angle_l	subtalar_angle_l	mtp_angle_l	lumbar_extension	lumbar_bending	lumbar_rotation
      3.58000000	    -10.25376338	      4.20179124	     -6.61832370	     -1.22303121	     -0.05553084	      0.70676785	     -9.90067584	     -6.68184573	      8.11586443	    -11.90784924	     11.17354196	      5.26060120	     15.13563730	     41.98234400	     -1.31152359	     -6.79721066	    -22.33212726	      4.95877725	      5.21954003	     -2.73902996	      6.05101816	     -1.27084296	      8.66811646
      3.58500000	    -10.44411949	      4.54287836	     -6.85448892	     -1.21406111	     -0.05695263	      0.70719143	     -9.62784169	     -7.08315534	      8.28100179	    -12.88336363	     10.83578589	      5.68519239	     15.31913436	     42.09274190	     -1.10551780	     -6.95601798	    -22.80622061	      4.58909480	      4.97349997	     -2.54851822	      6.42342495	     -1.78657066	      8.89837965
      3.59000000	    -10.55361854	      4.92812755	     -6.85338111	     -1.20505033	     -0.05831906	      0.70724604	     -9.41204102	     -7.54822566	      7.81393012	    -13.90187724	     10.26340151	      6.36496432	     17.01941272	     42.14110193	     -0.66964785	     -6.92906631	    -23.24919320	      3.23743362	      4.40601380	     -0.03286403	      6.69584650	     -2.39136634	      8.86079737
      3.59500000	    -10.85015390	      5.23665302	     -6.97975039	     -1.19616544	     -0.05978912	      0.70742475	     -8.83209036	     -7.91444461	      7.58242486	    -15.19975529	      9.80427319	      7.20234934	     17.69648376	     42.46335944	     -0.42530814	     -6.93376633	    -23.96289512	      2.32501024	      4.09769680	      1.06621406	      7.15670603	     -2.86300196	      9.00912824
      3.60000000	    -10.98142841	      5.61735649	     -6.98924179	     -1.18729704	     -0.06094130	      0.70760609	     -8.44359165	     -8.33427220	      7.44227376	    -16.42109578	      8.85686427	      7.43916594	     19.54872793	     42.60629780	     -0.00099335	     -6.73641441	    -24.58113516	      0.52680208	      3.48506519	      4.20789740	      7.42759870	     -3.48154340	      9.04178559
      3.60500000	    -11.30752866	      6.01174208	     -6.93652291	     -1.17847717	     -0.06229721	      0.70752160	     -7.69017834	     -8.77312236	      7.07627266	    -17.97309391	      8.19928566	      8.31173464	     20.24112914	     43.07425122	      0.48012403	     -6.39406081	    -25.49045495	     -0.54819130	      3.03019830	      4.96020001	      7.90372268	     -4.07330763	      8.99328504
      3.61000000	    -11.56655664	      6.50118422	     -6.74069524	     -1.16955724	     -0.06349554	      0.70743129	     -7.01141552	     -9.29658547	      6.63611784	    -19.48316157	      7.11116454	      8.79242225	     22.18136862	     43.49220428	      1.15032279	     -5.92096966	    -26.36659302	     -1.95708183	      2.51708901	      6.74353661	      8.31724953	     -4.83158081	      8.79191943
      3.61500000	    -11.78482634	      6.91410992	     -6.62956870	     -1.16092632	     -0.06449108	      0.70729268	     -6.23803811	     -9.74797648	      6.39571024	    -21.15122892	      5.81116218	      9.20929423	     24.06558602	     43.90493313	      1.75770602	     -5.29511242	    -27.30847911	     -3.15293364	      1.74779521	      7.84785941	      8.63452487	     -5.47852144	      8.71592532
      3.62000000	    -12.06916432	      7.43057667	     -6.41902030	     -1.15209893	     -0.06559038	      0.70709209	     -5.33340052	    -10.31022187	      6.00389776	    -22.95359003	      4.49976055	      9.78425682	     25.64943093	     44.42370492	      2.50827467	     -4.71159091	    -28.33362387	     -3.78924843	      1.13909716	      7.92041791	      9.05956342	     -6.25551316	      8.53904940
      3.62500000	    -12.25664586	      7.90577925	     -6.22433612	     -1.14338850	     -0.06649771	      0.70680653	     -4.46626467	    -10.84519444	      5.69530939	    -24.77059752	      2.80323313	     10.14573939	     28.00182811	     44.84296223	      3.26438891	     -4.12239556	    -29.37104214	     -4.06042770	      0.28581000	      7.02201182	      9.34761078	     -6.98416879	      8.37398039
      3.63000000	    -12.41939588	      8.40004210	     -6.00049177	     -1.13455575	     -0.06735521	      0.70648374	     -3.58588039	    -11.41011630	      5.38175130	    -26.62039616	      0.90814303	     10.49495403	     30.39788858	     45.21452309	      4.06135729	     -3.65295840	    -30.40735659	     -3.80835222	     -0.60423371	      4.90546272	      9.62788756	     -7.74182756	      8.17450132
      3.63500000	    -12.50347896	      8.86480562	     -5.79305351	     -1.12580398	     -0.06810909	      0.70608829	     -2.72908808	    -11.95562145	      5.14877624	    -28.49894330	     -1.20376502	     10.78358722	     32.93851839	     45.47345305	      4.84624309	     -3.26706697	    -31.42149578	     -3.10908163	     -1.59491904	      1.52910284	      9.79775773	     -8.45392994	      7.97730623
      3.64000000	    -12.58098652	      9.35298453	     -5.54204694	     -1.11693596	     -0.06883528	      0.70569688	     -1.85570914	    -12.51260220	      4.93194628	    -30.41485075	     -3.40076487	     11.02055954	     34.84452807	     45.66889050	      5.67955732	     -2.94483627	    -32.40301512	     -1.74052348	     -2.46845534	     -3.71460168	      9.97683753	     -9.20710551	      7.76487190
      3.64500000	    -12.56497736	      9.73709962	     -5.36523244	     -1.10829775	     -0.06933652	      0.70534388	     -1.03011750	    -12.96705749	      4.85170951	    -32.23749448	     -5.98944592	     11.14588787	     37.86497634	     45.67446060	      6.35882824	     -2.76130467	    -33.15397026	     -1.06067072	     -3.64016556	     -7.06488803	     10.01518521	     -9.82845436	      7.58432298
      3.65000000	    -12.57146925	     10.14882976	     -5.05061872	     -1.09954357	     -0.06982995	      0.70482308	     -0.19601299	    -13.44069485	      4.63417886	    -34.09770298	     -8.53891609	     11.21660673	     39.74599266	     45.65835420	      7.17062260	     -2.49771519	    -33.95608840	      0.91732380	     -4.32724926	    -14.03880851	     10.07504656	    -10.50231487	      7.25603363
      3.65500000	    -12.54953053	     10.47811250	     -4.86496982	     -1.09101738	     -0.07012056	      0.70460774	      0.67629047	    -13.79276674	      4.64113144	    -35.86886894	    -11.37879468	     11.08944486	     42.50939878	     45.49724626	      7.74673869	     -2.43275528	    -34.45283983	      1.36101936	     -5.17119326	    -16.00280576	     10.09103585	    -11.07427232	      7.05870588
      3.66000000	    -12.50920842	     10.78682761	     -4.61484410	     -1.08255476	     -0.07029034	      0.70429754	      1.53361132	    -14.12960799	      4.52424148	    -37.60799266	    -14.27135605	     10.80467246	     45.16737168	     45.26653381	      8.34769343	     -2.33133881	    -34.92897676	      2.24462071	     -5.65403374	    -18.76795240	     10.06451386	    -11.63206869	      6.77341961
      3.66500000	    -12.49923206	     11.08215590	     -4.33296898	     -1.07418311	     -0.07036716	      0.70389703	      2.44709662	    -14.45148095	      4.39187898	    -39.35308308	    -17.04471201	     10.57496941	     47.34373551	     45.00778926	      8.95514218	     -2.18658760	    -35.32520749	      3.10910219	     -5.98107587	    -21.08692859	     10.05468035	    -12.16453744	      6.44515622
      3.67000000	    -12.60872817	     11.34173941	     -3.98031695	     -1.06594833	     -0.07046111	      0.70328471	      3.51908762	    -14.74597214	      4.20246453	    -41.13781003	    -19.62942553	     10.45102068	     49.04672910	     44.82298342	      9.57660441	     -1.93917426	    -35.62565422	      3.56073596	     -6.38503076	    -22.07195120	     10.15116807	    -12.63607898	      6.06625434
      3.67500000	    -12.55206804	     11.58550019	     -3.73177229	     -1.05784262	     -0.07019963	      0.70287542	      4.45901852	    -15.02554992	      4.01714696	    -42.85156171	    -22.28293439	      9.77386555	     51.16932897	     44.42456510	     10.10285310	     -1.83353635	    -35.89051612	      4.22779899	     -6.51949352	    -22.94805920	     10.06454487	    -13.08332262	      5.77809453
      3.68000000	    -12.59617929	     11.84937454	     -3.44329149	     -1.04978960	     -0.06992298	      0.70236973	      5.53885600	    -15.33722517	      3.80349888	    -44.60200902	    -24.65607394	      9.05556725	     52.93290220	     44.08585259	     10.66630240	     -1.68724537	    -36.07462961	      4.84324514	     -6.69550562	    -23.62143820	     10.09265384	    -13.54244057	      5.42699569
      3.68500000	    -12.62576159	     12.11722946	     -3.18063664	     -1.04181279	     -0.06950030	      0.70183726	      6.64433573	    -15.66126143	      3.59905861	    -46.36475443	    -26.81374793	      8.05682617	     54.45989775	     43.69558324	     11.22294347	     -1.54539912	    -36.20162606	      5.46955157	     -6.86934157	    -24.14629380	     10.10943498	    -13.98379028	      5.09707184
      3.69000000	    -12.67816366	     12.37983290	     -2.94353019	     -1.03387912	     -0.06897794	      0.70130107	      7.81728870	    -15.98053876	      3.42147652	    -48.15851791	    -28.67984747	      6.83470195	     55.53090530	     43.28518338	     11.76589157	     -1.36000925	    -36.26431028	      6.07234846	     -7.04879118	    -24.46701288	     10.16616702	    -14.39560293	      4.82188385
      3.69500000	    -12.69507425	     12.69062673	     -2.73116736	     -1.02599320	     -0.06832204	      0.70075032	      9.00233848	    -16.37353276	      3.24322439	    -50.00425414	    -30.17860813	      5.51202235	     55.89694873	     42.81361658	     12.32931878	     -1.28163316	    -36.25706970	      6.54929608	     -7.27070598	    -24.54133151	     10.19752552	    -14.84153444	      4.54466847
      3.70000000	    -12.73806672	     12.98662665	     -2.52876120	     -1.01806082	     -0.06759122	      0.70020987	     10.22268855	    -16.74970724	      3.09304890	    -51.82184949	    -31.36005379	      3.97707900	     56.21558730	     42.32261349	     12.87261008	     -1.13356055	    -36.20642708	      7.09745582	     -7.34040971	    -24.54147867	     10.28375653	    -15.25829127	      4.28585868
      3.70500000	    -12.75569404	     13.30190312	     -2.34858612	     -1.01013327	     -0.06675138	      0.69971504	     11.43247931	    -17.14702911	      2.98216701	    -53.63449428	    -32.08592995	      2.39089707	     56.24221038	     41.76660567	     13.41625730	     -1.00174992	    -36.08970098	      7.61619193	     -7.37289212	    -24.47783706	     10.35961619	    -15.68561407	      4.01949370
